<?xml version="1.0" encoding="UTF-8"?>
<!DOCTYPE svg PUBLIC "-//W3C//DTD SVG 1.1//EN" "http://www.w3.org/Graphics/SVG/1.1/DTD/svg11.dtd">
<svg xmlns="http://www.w3.org/2000/svg" version="1.1" width="500px" height="167px" style="shape-rendering:geometricPrecision; text-rendering:geometricPrecision; image-rendering:optimizeQuality; fill-rule:evenodd; clip-rule:evenodd" xmlns:xlink="http://www.w3.org/1999/xlink">
<g><path style="opacity:0.993" fill="#334ec3" d="M 85.5,84.5 C 67.8333,74.5 50.1667,64.5 32.5,54.5C 32.1667,53.8333 31.8333,53.1667 31.5,52.5C 50.4354,40.3577 69.4354,28.191 88.5,16C 107.142,25.8318 125.475,36.4985 143.5,48C 123.993,60.0298 104.66,72.1964 85.5,84.5 Z"/></g>
<g><path style="opacity:0.647" fill="#46a177" d="M 31.5,52.5 C 31.8333,53.1667 32.1667,53.8333 32.5,54.5C 31.5027,75.3267 31.1694,96.3267 31.5,117.5C 30.1667,95.8333 30.1667,74.1667 31.5,52.5 Z"/></g>
<g><path style="opacity:0.996" fill="#26ac3b" d="M 32.5,54.5 C 50.1667,64.5 67.8333,74.5 85.5,84.5C 105.637,96.0699 125.637,107.903 145.5,120C 126.964,131.366 108.298,142.532 89.5,153.5C 70.1026,141.475 50.7693,129.475 31.5,117.5C 31.1694,96.3267 31.5027,75.3267 32.5,54.5 Z"/></g>
<g><path style="opacity:0.952" fill="#444444" d="M 171.5,59.5 C 178.381,58.5924 184.714,59.9258 190.5,63.5C 193.254,65.9976 192.92,67.9976 189.5,69.5C 186.72,68.5431 184.053,67.3764 181.5,66C 174.109,64.6083 169.276,67.4416 167,74.5C 165.497,92.6764 172.831,97.6764 189,89.5C 192.081,90.9446 192.747,92.9446 191,95.5C 183.217,101.543 175.051,102.043 166.5,97C 158.096,88.8722 156.263,79.3722 161,68.5C 163.468,64.1987 166.968,61.1987 171.5,59.5 Z"/></g>
<g><path style="opacity:0.925" fill="#4c4c4c" d="M 199.5,58.5 C 205.02,59.0435 206.354,61.5435 203.5,66C 198.502,67.3297 196.336,65.4964 197,60.5C 197.995,59.9341 198.828,59.2674 199.5,58.5 Z"/></g>
<g><path style="opacity:0.956" fill="#454545" d="M 357.5,59.5 C 364.255,58.6681 370.589,59.8348 376.5,63C 379.382,65.7185 379.048,67.8852 375.5,69.5C 369.935,65.5384 363.935,64.7051 357.5,67C 351.05,74.2079 350.217,82.0412 355,90.5C 356.171,91.8932 357.671,92.7265 359.5,93C 363.486,93.4988 367.486,93.6655 371.5,93.5C 371.5,90.1667 371.5,86.8333 371.5,83.5C 368.813,83.6641 366.146,83.4974 363.5,83C 362.14,81.0624 362.473,79.3957 364.5,78C 368.89,77.2278 373.223,77.3945 377.5,78.5C 378.664,84.4724 378.83,90.4724 378,96.5C 368.205,102.055 358.705,101.555 349.5,95C 341.622,84.7834 341.622,74.6168 349.5,64.5C 351.928,62.2946 354.595,60.6279 357.5,59.5 Z"/></g>
<g><path style="opacity:0.947" fill="#3f3f3f" d="M 246.5,59.5 C 248.467,59.2606 250.301,59.5939 252,60.5C 252.333,65.1667 252.667,69.8333 253,74.5C 266.796,68.4298 272.963,73.0965 271.5,88.5C 271.333,91.8333 271.167,95.1667 271,98.5C 268.321,101.172 265.988,100.838 264,97.5C 263.667,91.1667 263.333,84.8333 263,78.5C 259.837,77.0813 256.837,77.4146 254,79.5C 252.848,85.7697 252.182,92.1031 252,98.5C 250,101.167 248,101.167 246,98.5C 245.187,85.4247 245.354,72.4247 246.5,59.5 Z"/></g>
<g><path style="opacity:0.966" fill="#424242" d="M 487.5,73.5 C 487.783,74.2891 488.283,74.9558 489,75.5C 489.499,71.1794 489.666,66.8461 489.5,62.5C 490.495,59.4079 492.495,58.7413 495.5,60.5C 496.666,73.1535 496.833,85.8202 496,98.5C 492.78,101.318 490.446,100.651 489,96.5C 482.755,101.858 476.755,101.525 471,95.5C 466.341,87.4426 467.174,79.9426 473.5,73C 478.368,70.8691 483.035,71.0357 487.5,73.5 Z M 478.5,77.5 C 487.827,77.0191 490.994,81.3525 488,90.5C 485.602,94.1874 482.435,95.0207 478.5,93C 474.555,87.8359 474.555,82.6692 478.5,77.5 Z"/></g>
<g><path style="opacity:0.066" fill="#cecece" d="M 489.5,62.5 C 489.666,66.8461 489.499,71.1794 489,75.5C 488.283,74.9558 487.783,74.2891 487.5,73.5C 488.167,69.8333 488.833,66.1667 489.5,62.5 Z"/></g>
<g><path style="opacity:0.972" fill="#494949" d="M 309.5,71.5 C 312.325,71.1616 314.492,72.1616 316,74.5C 318.984,71.8999 322.484,70.8999 326.5,71.5C 326.739,73.4672 326.406,75.3005 325.5,77C 321.81,77.5358 318.644,79.0358 316,81.5C 315.667,87.1667 315.333,92.8333 315,98.5C 312.321,101.172 309.988,100.838 308,97.5C 307.333,89.5 307.333,81.5 308,73.5C 308.717,72.9558 309.217,72.2891 309.5,71.5 Z"/></g>
<g><path style="opacity:0.973" fill="#474747" d="M 449.5,71.5 C 453.162,70.6371 455.328,71.9704 456,75.5C 458.664,71.9669 462.164,70.8002 466.5,72C 467.833,73.6667 467.833,75.3333 466.5,77C 463.202,77.4867 460.202,78.6534 457.5,80.5C 456.711,86.1152 456.211,91.7818 456,97.5C 454.012,100.838 451.679,101.172 449,98.5C 448.196,89.4221 448.363,80.4221 449.5,71.5 Z"/></g>
<g><path style="opacity:0.921" fill="#383838" d="M 198.5,71.5 C 200.467,71.2606 202.301,71.5939 204,72.5C 204.667,81.1667 204.667,89.8333 204,98.5C 202,101.167 200,101.167 198,98.5C 197.196,89.4221 197.363,80.4221 198.5,71.5 Z"/></g>
<g><path style="opacity:0.967" fill="#424242" d="M 220.5,97.5 C 220.217,96.7109 219.717,96.0442 219,95.5C 218.501,99.4862 218.334,103.486 218.5,107.5C 216.862,110.874 214.696,111.207 212,108.5C 211.179,96.2575 211.346,84.0908 212.5,72C 215.579,70.9096 217.912,71.7429 219.5,74.5C 231.551,68.8614 238.551,72.6947 240.5,86C 239.823,94.3448 235.323,99.1781 227,100.5C 224.454,100.141 222.287,99.1414 220.5,97.5 Z M 222.5,77.5 C 227.352,76.2772 230.519,77.9438 232,82.5C 233.599,91.5699 230.099,95.0699 221.5,93C 218.567,87.5239 218.9,82.3572 222.5,77.5 Z"/></g>
<g><path style="opacity:0.968" fill="#434343" d="M 301.5,86.5 C 295.5,86.5 289.5,86.5 283.5,86.5C 283.263,87.791 283.596,88.791 284.5,89.5C 285.878,92.3681 288.212,94.0348 291.5,94.5C 294.413,93.7299 297.247,92.7299 300,91.5C 302.59,92.6868 303.09,94.5202 301.5,97C 293.239,102.314 285.739,101.481 279,94.5C 273.44,77.0657 279.607,69.899 297.5,73C 301.994,76.7601 303.327,81.2601 301.5,86.5 Z M 295.5,79.5 C 295.5,80.5 295.5,81.5 295.5,82.5C 291.351,83.0803 287.684,82.4136 284.5,80.5C 287.862,75.7335 291.529,75.4002 295.5,79.5 Z"/></g>
<g><path style="opacity:0.973" fill="#474747" d="M 387.5,71.5 C 389.722,71.178 391.556,71.8446 393,73.5C 393.333,79.8333 393.667,86.1667 394,92.5C 397.123,94.8208 400.123,94.4875 403,91.5C 403.083,85.0582 403.749,78.7248 405,72.5C 406.814,71.2404 408.647,71.2404 410.5,72.5C 411.637,81.1182 411.804,89.7849 411,98.5C 407.78,101.318 405.446,100.651 404,96.5C 398.08,101.78 392.413,101.446 387,95.5C 385.443,88.2473 385.11,80.914 386,73.5C 386.717,72.9558 387.217,72.2891 387.5,71.5 Z"/></g>
<g><path style="opacity:0.953" fill="#474747" d="M 423.5,71.5 C 427.514,71.3345 431.514,71.5012 435.5,72C 437.939,72.7739 439.773,74.2739 441,76.5C 442.378,83.1182 442.711,89.7848 442,96.5C 439.999,101.23 437.499,101.563 434.5,97.5C 428.036,101.843 422.536,100.843 418,94.5C 416.108,88.9579 417.941,85.4579 423.5,84C 427.191,83.5804 430.858,83.0804 434.5,82.5C 434.714,80.8561 434.38,79.3561 433.5,78C 428.712,77.5185 424.045,77.8518 419.5,79C 418.446,77.6124 418.28,76.1124 419,74.5C 420.652,73.6006 422.152,72.6006 423.5,71.5 Z M 426.5,87.5 C 429.167,87.5 431.833,87.5 434.5,87.5C 433.893,94.2973 430.726,95.9639 425,92.5C 424.387,90.5048 424.887,88.8381 426.5,87.5 Z"/></g>
<g><path style="opacity:0.114" fill="#c1c1c1" d="M 295.5,79.5 C 296.434,80.5676 296.768,81.901 296.5,83.5C 292.167,83.5 287.833,83.5 283.5,83.5C 283.263,82.209 283.596,81.209 284.5,80.5C 287.684,82.4136 291.351,83.0803 295.5,82.5C 295.5,81.5 295.5,80.5 295.5,79.5 Z"/></g>
<g><path style="opacity:0.296" fill="#969696" d="M 301.5,86.5 C 295.594,86.8543 289.927,87.8543 284.5,89.5C 283.596,88.791 283.263,87.791 283.5,86.5C 289.5,86.5 295.5,86.5 301.5,86.5 Z"/></g>
<g><path style="opacity:0.082" fill="#c7c7c7" d="M 220.5,97.5 C 219.833,100.833 219.167,104.167 218.5,107.5C 218.334,103.486 218.501,99.4862 219,95.5C 219.717,96.0442 220.217,96.7109 220.5,97.5 Z"/></g>
</svg>
