<svg xmlns="http://www.w3.org/2000/svg" width="363" height="139" viewBox="0 0 363 139" version="1.1"><path d="M 290.892 13.449 C 279.817 16.504, 270.673 23.944, 265.902 33.784 C 262.381 41.044, 262.565 52.573, 266.323 60.239 C 271.412 70.620, 280.610 76.113, 301.225 81.083 C 316.338 84.726, 320.864 86.610, 321.607 89.568 C 323.090 95.480, 315.366 99.582, 304.253 98.784 C 296.675 98.240, 291.204 95.876, 283.619 89.867 C 279.736 86.790, 277.897 86.001, 274.619 86.004 C 264.224 86.013, 256.886 97.078, 261.438 105.880 C 264.581 111.958, 279.938 121.374, 291.661 124.412 C 299.431 126.425, 312.848 126.451, 320.465 124.467 C 342.039 118.848, 353.394 100.160, 347.433 80.087 C 345.640 74.049, 339.887 67.190, 333.452 63.419 C 324.256 58.030, 307.295 53.858, 306.279 56.736 C 305.770 58.177, 307.492 58.940, 319 62.379 C 334.013 66.865, 341.770 73.758, 344.025 84.618 C 349.697 111.944, 317.222 130.221, 285.692 117.446 C 279.131 114.788, 267.544 106.885, 266.013 104.025 C 264.327 100.874, 264.864 97.315, 267.497 94.186 C 272.067 88.755, 275.717 89.090, 283.421 95.647 C 298.681 108.636, 326 105.384, 326 90.578 C 326 83.763, 322.390 81.582, 303.448 76.948 C 282.627 71.856, 274.927 67.333, 270.351 57.507 C 263.730 43.288, 270.708 27.404, 287 19.610 C 293.172 16.657, 294.113 16.500, 305.665 16.500 C 315.284 16.500, 317.613 16.238, 316.793 15.250 C 316.050 14.355, 316.145 13.966, 317.128 13.882 C 317.882 13.817, 317.150 13.420, 315.500 13 C 310.737 11.788, 295.936 12.058, 290.892 13.449 M 21.763 15.565 C 16.080 18.649, 15.982 19.431, 16.193 60.200 C 16.299 80.715, 16.545 94.674, 16.741 91.221 C 17.165 83.738, 18.902 83.800, 19.220 91.309 C 19.341 94.164, 19.679 79.923, 19.970 59.662 L 20.500 22.825 23.306 20.412 C 27.015 17.223, 31.984 17.223, 35.694 20.411 L 38.500 22.822 39 43.161 L 39.500 63.500 62.470 93.393 C 86.650 124.860, 87.806 126, 95.534 126 C 104.213 126, 110.590 118.470, 108.606 110.564 C 108.136 108.694, 91.411 86.301, 74.866 65.390 C 74.288 64.659, 79.712 58.613, 90.744 47.689 L 107.500 31.098 107.500 25.972 C 107.500 21.330, 107.147 20.523, 103.765 17.423 C 100.317 14.264, 99.531 14, 93.567 14 C 87.285 14, 86.941 14.138, 81.302 18.899 C 71.513 27.163, 54.701 44.707, 55.434 45.893 C 57.051 48.510, 60.265 46.259, 72.514 33.931 C 85.982 20.377, 89.113 18, 93.500 18 C 96.805 18, 101.571 20.440, 102.379 22.545 C 104.222 27.349, 103.147 28.852, 85.487 46.154 L 67.974 63.312 69.614 65.814 C 70.515 67.190, 78.419 77.501, 87.178 88.728 C 95.937 99.955, 103.519 110.234, 104.027 111.570 C 105.444 115.299, 103.579 118.859, 99.256 120.674 C 95.989 122.046, 95.010 122.072, 91.739 120.876 C 88.515 119.697, 84.758 115.284, 65.489 90.041 L 43 60.581 43 41.741 C 43 20.938, 42.398 18.291, 37.033 15.517 C 33.325 13.600, 25.339 13.625, 21.763 15.565 M 138.095 16.574 C 136.413 17.989, 134.543 20.802, 133.940 22.824 C 132.264 28.443, 133.060 116.729, 134.814 119.804 C 136.873 123.413, 141.963 125.994, 147 125.982 C 152.679 125.968, 155.827 124.381, 158.735 120.065 C 161.011 116.688, 161.028 116.419, 160.765 88.579 C 160.507 61.255, 160.446 60.500, 158.500 60.500 C 156.554 60.500, 156.493 61.255, 156.234 88.453 C 155.976 115.526, 155.900 116.478, 153.810 118.703 C 150.556 122.166, 142.915 121.978, 140.073 118.365 C 138.045 115.788, 138 114.745, 138 70.412 C 138 39.329, 138.349 24.329, 139.110 22.657 C 140.973 18.569, 146.522 16.912, 151.203 19.048 C 152.466 19.625, 163.850 34.474, 176.500 52.046 C 189.150 69.618, 200.065 83.997, 200.755 83.998 C 201.446 83.999, 204.146 81.031, 206.755 77.401 L 211.500 70.802 212 94.331 C 212.465 116.227, 212.645 118.055, 214.596 120.680 C 217.435 124.498, 220.621 125.968, 226.102 125.985 C 231.943 126.004, 237.044 122.755, 238.694 117.965 C 239.545 115.492, 239.903 101.679, 239.944 69.718 C 240.005 21.105, 239.939 20.457, 234.486 16.168 C 231.051 13.466, 221.689 13.129, 218.187 15.581 C 215.565 17.418, 196 44.734, 196 46.559 C 196 48.812, 198.764 48.882, 200.753 46.678 C 201.834 45.480, 206.195 39.432, 210.443 33.238 C 214.691 27.044, 218.836 21.307, 219.653 20.490 C 223.066 17.077, 229.448 17.417, 232.972 21.201 C 234.949 23.322, 235 24.549, 235 69.554 C 235 114.755, 234.956 115.786, 232.927 118.365 C 230.085 121.978, 222.444 122.166, 219.190 118.703 C 217.100 116.478, 217.024 115.526, 216.766 88.466 C 216.448 55.109, 216.458 55.130, 207.347 68.420 C 204.131 73.111, 201.243 76.961, 200.929 76.975 C 200.615 76.989, 190.801 63.737, 179.120 47.526 C 167.439 31.316, 156.723 17.141, 155.306 16.026 C 151.312 12.884, 142.133 13.176, 138.095 16.574 M 39.132 102.677 C 39.215 110.154, 39.520 113.213, 39.961 111 C 40.709 107.245, 41.598 108.186, 42.324 113.500 C 42.549 115.150, 42.681 110.880, 42.617 104.012 C 42.513 92.968, 42.298 91.486, 40.750 91.189 C 39.157 90.883, 39.012 91.916, 39.132 102.677" stroke="none" fill="#cd2b5a" fill-rule="evenodd"/><path d="M -0 69.503 L -0 139.005 181.750 138.753 L 363.500 138.500 363.757 69.250 L 364.014 -0 182.007 -0 L 0 0 -0 69.503 M 0.473 70 C 0.473 108.225, 0.598 123.862, 0.750 104.750 C 0.902 85.637, 0.902 54.362, 0.750 35.250 C 0.598 16.137, 0.473 31.775, 0.473 70 M 290.892 13.449 C 279.817 16.504, 270.673 23.944, 265.902 33.784 C 262.381 41.044, 262.565 52.573, 266.323 60.239 C 271.412 70.620, 280.610 76.113, 301.225 81.083 C 316.338 84.726, 320.864 86.610, 321.607 89.568 C 323.090 95.480, 315.366 99.582, 304.253 98.784 C 296.675 98.240, 291.204 95.876, 283.619 89.867 C 279.736 86.790, 277.897 86.001, 274.619 86.004 C 264.224 86.013, 256.886 97.078, 261.438 105.880 C 264.581 111.958, 279.938 121.374, 291.661 124.412 C 299.431 126.425, 312.848 126.451, 320.465 124.467 C 342.039 118.848, 353.394 100.160, 347.433 80.087 C 345.640 74.049, 339.887 67.190, 333.452 63.419 C 324.256 58.030, 307.295 53.858, 306.279 56.736 C 305.770 58.177, 307.492 58.940, 319 62.379 C 334.013 66.865, 341.770 73.758, 344.025 84.618 C 349.697 111.944, 317.222 130.221, 285.692 117.446 C 279.131 114.788, 267.544 106.885, 266.013 104.025 C 264.327 100.874, 264.864 97.315, 267.497 94.186 C 272.067 88.755, 275.717 89.090, 283.421 95.647 C 298.681 108.636, 326 105.384, 326 90.578 C 326 83.763, 322.390 81.582, 303.448 76.948 C 282.627 71.856, 274.927 67.333, 270.351 57.507 C 263.730 43.288, 270.708 27.404, 287 19.610 C 293.172 16.657, 294.113 16.500, 305.665 16.500 C 315.284 16.500, 317.613 16.238, 316.793 15.250 C 316.050 14.355, 316.145 13.966, 317.128 13.882 C 317.882 13.817, 317.150 13.420, 315.500 13 C 310.737 11.788, 295.936 12.058, 290.892 13.449 M 21.763 15.565 C 16.080 18.649, 15.982 19.431, 16.193 60.200 C 16.299 80.715, 16.545 94.674, 16.741 91.221 C 17.165 83.738, 18.902 83.800, 19.220 91.309 C 19.341 94.164, 19.679 79.923, 19.970 59.662 L 20.500 22.825 23.306 20.412 C 27.015 17.223, 31.984 17.223, 35.694 20.411 L 38.500 22.822 39 43.161 L 39.500 63.500 62.470 93.393 C 86.650 124.860, 87.806 126, 95.534 126 C 104.213 126, 110.590 118.470, 108.606 110.564 C 108.136 108.694, 91.411 86.301, 74.866 65.390 C 74.288 64.659, 79.712 58.613, 90.744 47.689 L 107.500 31.098 107.500 25.972 C 107.500 21.330, 107.147 20.523, 103.765 17.423 C 100.317 14.264, 99.531 14, 93.567 14 C 87.285 14, 86.941 14.138, 81.302 18.899 C 71.513 27.163, 54.701 44.707, 55.434 45.893 C 57.051 48.510, 60.265 46.259, 72.514 33.931 C 85.982 20.377, 89.113 18, 93.500 18 C 96.805 18, 101.571 20.440, 102.379 22.545 C 104.222 27.349, 103.147 28.852, 85.487 46.154 L 67.974 63.312 69.614 65.814 C 70.515 67.190, 78.419 77.501, 87.178 88.728 C 95.937 99.955, 103.519 110.234, 104.027 111.570 C 105.444 115.299, 103.579 118.859, 99.256 120.674 C 95.989 122.046, 95.010 122.072, 91.739 120.876 C 88.515 119.697, 84.758 115.284, 65.489 90.041 L 43 60.581 43 41.741 C 43 20.938, 42.398 18.291, 37.033 15.517 C 33.325 13.600, 25.339 13.625, 21.763 15.565 M 138.095 16.574 C 136.413 17.989, 134.543 20.802, 133.940 22.824 C 132.264 28.443, 133.060 116.729, 134.814 119.804 C 136.873 123.413, 141.963 125.994, 147 125.982 C 152.679 125.968, 155.827 124.381, 158.735 120.065 C 161.011 116.688, 161.028 116.419, 160.765 88.579 C 160.507 61.255, 160.446 60.500, 158.500 60.500 C 156.554 60.500, 156.493 61.255, 156.234 88.453 C 155.976 115.526, 155.900 116.478, 153.810 118.703 C 150.556 122.166, 142.915 121.978, 140.073 118.365 C 138.045 115.788, 138 114.745, 138 70.412 C 138 39.329, 138.349 24.329, 139.110 22.657 C 140.973 18.569, 146.522 16.912, 151.203 19.048 C 152.466 19.625, 163.850 34.474, 176.500 52.046 C 189.150 69.618, 200.065 83.997, 200.755 83.998 C 201.446 83.999, 204.146 81.031, 206.755 77.401 L 211.500 70.802 212 94.331 C 212.465 116.227, 212.645 118.055, 214.596 120.680 C 217.435 124.498, 220.621 125.968, 226.102 125.985 C 231.943 126.004, 237.044 122.755, 238.694 117.965 C 239.545 115.492, 239.903 101.679, 239.944 69.718 C 240.005 21.105, 239.939 20.457, 234.486 16.168 C 231.051 13.466, 221.689 13.129, 218.187 15.581 C 215.565 17.418, 196 44.734, 196 46.559 C 196 48.812, 198.764 48.882, 200.753 46.678 C 201.834 45.480, 206.195 39.432, 210.443 33.238 C 214.691 27.044, 218.836 21.307, 219.653 20.490 C 223.066 17.077, 229.448 17.417, 232.972 21.201 C 234.949 23.322, 235 24.549, 235 69.554 C 235 114.755, 234.956 115.786, 232.927 118.365 C 230.085 121.978, 222.444 122.166, 219.190 118.703 C 217.100 116.478, 217.024 115.526, 216.766 88.466 C 216.448 55.109, 216.458 55.130, 207.347 68.420 C 204.131 73.111, 201.243 76.961, 200.929 76.975 C 200.615 76.989, 190.801 63.737, 179.120 47.526 C 167.439 31.316, 156.723 17.141, 155.306 16.026 C 151.312 12.884, 142.133 13.176, 138.095 16.574 M 39.132 102.677 C 39.215 110.154, 39.520 113.213, 39.961 111 C 40.709 107.245, 41.598 108.186, 42.324 113.500 C 42.549 115.150, 42.681 110.880, 42.617 104.012 C 42.513 92.968, 42.298 91.486, 40.750 91.189 C 39.157 90.883, 39.012 91.916, 39.132 102.677" stroke="none" fill="#fbf8f7" fill-rule="evenodd"/></svg>